PathFileType	4	(X/Y/Z)	c:/Users/goper/Files/vsCode/490R/osim_files/C17/C17_Static.trc
DataRate	CameraRate	NumFrames	NumMarkers	Units                	OrigDataRate	OrigDataStartFrame	OrigNumFrames
250.00	250.00	4	36	mm	250.0	408	3257
                Frame#	Time	LPSIS			LASIS			LTH1			LTH2			LTH3			LTH4			LLFE			LMFE			LSH1			LSH2			LSH3			LSH4			LLMAL			LMMAL			LCAL			LMTP5			LTOE			LMTP1			RPSIS			RASIS			RTH1			RTH2			RTH3			RTH4			RLFE			RMFE			RSH1			RSH2			RSH3			RSH4			RLMAL			RMMAL			RCAL			RMTP1			RTOE			RMTP5		
		X1	Y1	Z1	X2	Y2	Z2	X3	Y3	Z3	X4	Y4	Z4	X5	Y5	Z5	X6	Y6	Z6	X7	Y7	Z7	X8	Y8	Z8	X9	Y9	Z9	X10	Y10	Z10	X11	Y11	Z11	X12	Y12	Z12	X13	Y13	Z13	X14	Y14	Z14	X15	Y15	Z15	X16	Y16	Z16	X17	Y17	Z17	X18	Y18	Z18	X19	Y19	Z19	X20	Y20	Z20	X21	Y21	Z21	X22	Y22	Z22	X23	Y23	Z23	X24	Y24	Z24	X25	Y25	Z25	X26	Y26	Z26	X27	Y27	Z27	X28	Y28	Z28	X29	Y29	Z29	X30	Y30	Z30	X31	Y31	Z31	X32	Y32	Z32	X33	Y33	Z33	X34	Y34	Z34	X35	Y35	Z35	X36	Y36	Z36

408	1.62800	-292.99557	1077.56421	407.03540	-83.08896	1030.96582	312.77271	-190.69069	755.06091	262.19742	-189.41333	711.29895	262.07425	-128.42532	751.94684	259.64145	-135.72420	707.52289	260.85104	-196.94901	514.79712	278.80017	-195.32950	504.89523	401.47003	-272.25052	292.03659	262.06802	-271.79486	249.59021	260.00287	-209.71283	284.81851	255.99059	-219.89244	242.18340	257.34891	-259.17255	99.49352	267.30847	-244.90450	98.86803	353.24591	-332.71951	56.54326	309.40359	-143.06841	41.04983	235.86562	-82.56075	58.26629	302.89877	-100.06563	40.72706	352.60263	-293.06229	1069.62781	480.83328	-100.89693	1039.92761	594.32605	-189.69229	783.46655	656.46887	-193.91580	737.35602	652.36298	-130.55267	773.97034	650.96503	-142.27383	727.75403	651.55615	-200.50365	508.04758	649.75250	-206.02682	504.56830	523.94751	-286.82666	331.80603	675.29419	-285.69888	285.92822	671.93915	-225.09744	325.28082	679.55237	-234.07698	278.61166	676.65070	-270.65463	92.69949	664.36481	-243.61591	101.92152	578.33649	-338.41199	52.64211	628.26825	-105.29150	41.42018	578.06287	-88.74825	61.70743	624.50726	-141.78117	35.74488	696.46930
409	1.63200	-292.98288	1077.53162	406.96466	-83.10180	1030.96863	312.77817	-190.61853	755.09625	262.17822	-189.37074	711.31702	262.05670	-128.37944	751.96564	259.63477	-135.69426	707.53424	260.86359	-196.93779	514.79266	278.79117	-195.33127	504.91962	401.45569	-272.26071	292.08795	262.05612	-271.77054	249.59677	259.97928	-209.69955	284.83685	255.98465	-219.92111	242.18881	257.34314	-259.15433	99.50542	267.29089	-244.97911	98.83413	353.21564	-332.70844	56.56014	309.37244	-143.10799	41.03286	235.87230	-82.59123	58.25279	302.90591	-100.10774	40.72829	352.59064	-293.07968	1069.59509	480.79218	-101.01024	1039.93677	594.34210	-189.75949	783.49811	656.48016	-193.97186	737.34418	652.37030	-130.62535	773.98230	651.02985	-142.32367	727.77356	651.59979	-200.49918	508.07458	649.76343	-205.98477	504.57703	523.93805	-286.85266	331.80377	675.29419	-285.70697	285.95682	671.93335	-225.11609	325.28317	679.57507	-234.09087	278.58429	676.67896	-270.70941	92.70936	664.33722	-243.61732	101.93887	578.31592	-338.45621	52.63641	628.23987	-105.31695	41.40293	578.07306	-88.72573	61.71466	624.50208	-141.80450	35.75988	696.46619
410	1.63600	-293.04889	1077.54041	406.93811	-83.07011	1030.98633	312.79199	-190.56413	755.11340	262.16064	-189.35883	711.30951	262.07217	-128.36646	751.96515	259.66794	-135.65405	707.55267	260.88840	-196.90988	514.80664	278.78058	-195.34253	504.94974	401.46518	-272.27463	292.04538	262.10065	-271.76410	249.62158	259.97421	-209.70047	284.83780	255.99445	-219.92934	242.19225	257.35614	-259.13742	99.50491	267.28806	-245.01384	98.83419	353.22961	-332.71085	56.55767	309.38226	-143.12901	41.02916	235.88654	-82.60146	58.25741	302.90887	-100.11181	40.73625	352.59720	-293.10449	1069.56763	480.73938	-101.11205	1039.93323	594.36725	-189.80829	783.50812	656.50183	-193.99529	737.35022	652.37872	-130.70390	773.93597	651.10382	-142.37013	727.78949	651.64905	-200.53052	508.08563	649.79077	-205.90268	504.59393	523.97211	-286.85855	331.80862	675.31268	-285.77658	285.94516	671.94257	-225.16019	325.26340	679.60199	-234.18336	278.60056	676.72363	-270.71591	92.71622	664.36133	-243.63110	101.94659	578.31195	-338.49332	52.63576	628.25653	-105.28709	41.42540	578.06262	-88.74751	61.71667	624.53040	-141.79169	35.77293	696.48657
411	1.64000	-293.02881	1077.51965	406.91974	-83.04835	1031.00879	312.80832	-190.48647	755.13885	262.14636	-189.31255	711.33447	262.05545	-128.33197	751.99158	259.67914	-135.62462	707.56525	260.89444	-196.90479	514.83142	278.79123	-195.33015	504.98306	401.47632	-272.26645	292.07578	262.07703	-271.73657	249.64133	259.94998	-209.68935	284.84775	256.00366	-219.90828	242.20334	257.36780	-259.14957	99.52790	267.27740	-245.15611	98.68663	353.33939	-332.68301	56.59378	309.35455	-143.13011	41.02978	235.87762	-82.62912	58.25223	302.92517	-100.66200	40.14168	352.67288	-293.12030	1069.54675	480.72568	-101.26175	1039.92969	594.39545	-189.86179	783.51910	656.50354	-193.99475	737.37946	652.41272	-130.73608	773.95123	651.17499	-142.40648	727.79059	651.67804	-200.48033	508.11920	649.81116	-205.86002	504.65134	523.95410	-286.84952	331.80994	675.33325	-285.78952	285.93988	671.95825	-225.18428	325.26434	679.63110	-234.20534	278.59662	676.73761	-270.71561	92.73672	664.37457	-243.63086	101.97382	578.29022	-338.44724	52.65282	628.24188	-105.30175	41.44756	578.05713	-88.71272	61.74392	624.51843	-141.80881	35.77867	696.48407
